<?xml version="1.0" encoding="UTF-8"?>
<svg viewBox="0 0 482 52" version="1.1" xmlns="http://www.w3.org/2000/svg" xmlns:xlink="http://www.w3.org/1999/xlink">
    <title>Fundamento_Color_Horizontal_White_Bg_Rgb</title>
    <defs>
        <linearGradient x1="74.8%" y1="58.2219684%" x2="24.8481865%" y2="41.6352922%" id="linearGradient-1">
            <stop stop-color="#FFBB00" offset="0%"></stop>
            <stop stop-color="#FCB300" offset="15.92%"></stop>
            <stop stop-color="#F59E00" offset="40.18%"></stop>
            <stop stop-color="#E87C00" offset="69.76%"></stop>
            <stop stop-color="#D95100" offset="100%"></stop>
        </linearGradient>
        <linearGradient x1="80.5786127%" y1="55.6741513%" x2="19.5445087%" y2="44.3694268%" id="linearGradient-2">
            <stop stop-color="#FFBB00" offset="0%"></stop>
            <stop stop-color="#FEB700" offset="20.55%"></stop>
            <stop stop-color="#FAAC00" offset="39.75%"></stop>
            <stop stop-color="#F39900" offset="58.4%"></stop>
            <stop stop-color="#E97F00" offset="76.72%"></stop>
            <stop stop-color="#DD5D00" offset="94.63%"></stop>
            <stop stop-color="#D95100" offset="100%"></stop>
        </linearGradient>
        <linearGradient x1="31.3212766%" y1="59.3253282%" x2="68.7663121%" y2="40.6963671%" id="linearGradient-3">
            <stop stop-color="#37AAED" offset="0%"></stop>
            <stop stop-color="#37AAED" offset="0.1454055%"></stop>
            <stop stop-color="#218BD8" offset="26.78%"></stop>
            <stop stop-color="#1175C9" offset="52.77%"></stop>
            <stop stop-color="#0768C0" offset="77.6%"></stop>
            <stop stop-color="#0463BD" offset="100%"></stop>
        </linearGradient>
        <linearGradient x1="24.1570732%" y1="58.1201023%" x2="75.6526829%" y2="42.0217347%" id="linearGradient-4">
            <stop stop-color="#37AAED" offset="0%"></stop>
            <stop stop-color="#37AAED" offset="0.1454055%"></stop>
            <stop stop-color="#218BD8" offset="26.78%"></stop>
            <stop stop-color="#1175C9" offset="52.77%"></stop>
            <stop stop-color="#0768C0" offset="77.6%"></stop>
            <stop stop-color="#0463BD" offset="100%"></stop>
        </linearGradient>
        <linearGradient x1="36.6117177%" y1="58.1736702%" x2="63.3447275%" y2="41.9632979%" id="linearGradient-5">
            <stop stop-color="#37AAED" offset="0%"></stop>
            <stop stop-color="#37AAED" offset="0.1454055%"></stop>
            <stop stop-color="#218BD8" offset="26.78%"></stop>
            <stop stop-color="#1175C9" offset="52.77%"></stop>
            <stop stop-color="#0768C0" offset="77.6%"></stop>
            <stop stop-color="#0463BD" offset="100%"></stop>
        </linearGradient>
        <linearGradient x1="41.6732408%" y1="58.3745205%" x2="58.3964459%" y2="41.6726027%" id="linearGradient-6">
            <stop stop-color="#52CCE0" offset="0%"></stop>
            <stop stop-color="#49C0E4" offset="10.13%"></stop>
            <stop stop-color="#3FB4E9" offset="27.72%"></stop>
            <stop stop-color="#39ACEC" offset="50.82%"></stop>
            <stop stop-color="#37AAED" offset="100%"></stop>
        </linearGradient>
        <linearGradient x1="36.9374127%" y1="63.2094421%" x2="63.0117409%" y2="37.0334764%" id="linearGradient-7">
            <stop stop-color="#52CCE0" offset="0%"></stop>
            <stop stop-color="#49C0E4" offset="10.13%"></stop>
            <stop stop-color="#3FB4E9" offset="27.72%"></stop>
            <stop stop-color="#39ACEC" offset="50.82%"></stop>
            <stop stop-color="#37AAED" offset="100%"></stop>
        </linearGradient>
        <linearGradient x1="43.8886187%" y1="56.1799197%" x2="56.1156631%" y2="43.9307229%" id="linearGradient-8">
            <stop stop-color="#52CCE0" offset="0%"></stop>
            <stop stop-color="#51CAE1" offset="2.183121%"></stop>
            <stop stop-color="#42B8E8" offset="32.34%"></stop>
            <stop stop-color="#3AAEEC" offset="64.14%"></stop>
            <stop stop-color="#37AAED" offset="100%"></stop>
        </linearGradient>
        <linearGradient x1="82.6074148%" y1="54.1804928%" x2="17.2875752%" y2="45.7915567%" id="linearGradient-9">
            <stop stop-color="#FFBB00" offset="0%"></stop>
            <stop stop-color="#FEB700" offset="20.55%"></stop>
            <stop stop-color="#FAAC00" offset="39.75%"></stop>
            <stop stop-color="#F39900" offset="58.4%"></stop>
            <stop stop-color="#E97F00" offset="76.72%"></stop>
            <stop stop-color="#DD5D00" offset="94.63%"></stop>
            <stop stop-color="#D95100" offset="100%"></stop>
        </linearGradient>
    </defs>
    <g id="Page-1" stroke="none" stroke-width="1" fill="none" fill-rule="evenodd">
        <g id="Fundamento_Color_Horizontal_White_Bg_Rgb">
            <path d="M155,51.1 C164.7,51.1 169.4,45.6 169.4,37.4 L169.4,17.3 L163.5,17.3 L163.5,37.2 C163.5,42.5 160.6,45.9 155,45.9 C149.5,45.9 146.5,42.5 146.5,37.2 L146.5,17.3 L140.6,17.3 L140.6,37.4 C140.6,45.6 145.4,51.1 155,51.1 M209.7,50.5 L209.7,17.3 L203.9,17.3 L203.9,40.3 L186.9,17.3 L180.9,17.3 L180.9,50.5 L186.7,50.5 L186.7,26.8 L204,50.5 L209.7,50.5 Z M233.6,45.4 L227.1,45.4 L227.1,22.5 L233.7,22.5 C241.1,22.5 245,27.6 245,33.9 C245,40.2 240.8,45.4 233.6,45.4 Z M233.6,50.5 C243.9,50.5 250.9,43.7 250.9,33.9 C250.9,24.2 243.9,17.3 233.5,17.3 L221.2,17.3 L221.2,50.5 L233.6,50.5 L233.6,50.5 Z M278.5,39 L266.6,39 L272.6,23.2 L278.5,39 Z M289.2,50.5 L276.2,17.3 L268.9,17.3 L255.9,50.5 L262.5,50.5 L264.9,44.1 L280.1,44.1 L282.5,50.5 L289.2,50.5 Z M331.8,50.5 L331.8,17.3 L323.6,17.3 L314.6,40.1 L305.5,17.3 L297.3,17.3 L297.3,50.5 L303.1,50.5 L303.1,24.9 L313.3,50.5 L315.8,50.5 L326,24.9 L326,50.5 L331.8,50.5 Z M366,50.5 L366,45.4 L349.1,45.4 L349.1,36.1 L365.7,36.1 L365.7,31 L349.1,31 L349.1,22.4 L366,22.4 L366,17.3 L343.3,17.3 L343.3,50.5 L366,50.5 L366,50.5 Z M405.2,50.5 L405.2,17.3 L399.4,17.3 L399.4,40.3 L382.4,17.3 L376.4,17.3 L376.4,50.5 L382.2,50.5 L382.2,26.8 L399.5,50.5 L405.2,50.5 Z M430.5,50.5 L430.5,22.4 L440.6,22.4 L440.6,17.3 L414.7,17.3 L414.7,22.4 L424.8,22.4 L424.8,50.5 L430.5,50.5 Z M464.3,45.9 C457.6,45.9 453.3,40.7 453.3,33.9 C453.3,27 457.6,21.9 464.3,21.9 C471,21.9 475.3,27 475.3,33.9 C475.3,40.8 470.9,45.9 464.3,45.9 Z M464.3,51.1 C474.2,51.1 481.3,43.8 481.3,33.9 C481.3,24 474.2,16.7 464.3,16.7 C454.3,16.7 447.3,24 447.3,33.9 C447.3,43.8 454.3,51.1 464.3,51.1 Z M114,50.5 L114,36.1 L130.6,36.1 L130.6,31 L114,31 L114,22.4 L130.9,22.4 L130.9,17.3 L108.2,17.3 L108.2,50.5 L114,50.5 L114,50.5 Z" id="Shape" fill="#000000" fill-rule="nonzero"></path>
            <polygon id="Path" fill="url(#linearGradient-1)" points="7.2 27.1 0.8 38.2 13.6 38.2 20.1 27.1"></polygon>
            <polygon id="Path" fill="url(#linearGradient-2)" points="8.4 24.9 36.6 24.9 43 13.8 14.9 13.8"></polygon>
            <polygon id="Path" fill="url(#linearGradient-3)" points="37.8 51.4 51.9 51.4 37.8 27.1 23.7 27.1"></polygon>
            <polygon id="Path" fill="url(#linearGradient-4)" points="7.2 51.4 21.3 51.4 14.9 40.3 0.8 40.3"></polygon>
            <polygon id="Path" fill="url(#linearGradient-5)" points="68.4 51.4 82.5 51.4 60.8 13.8 46.7 13.8"></polygon>
            <polygon id="Path" fill="url(#linearGradient-6)" points="37.8 27.1 45.7 40.7 51.9 51.4 58.9 39.3 44.9 14.9"></polygon>
            <polygon id="Path" fill="url(#linearGradient-7)" points="21.9 28.1 14.9 40.3 21.3 51.4 28.3 39.2"></polygon>
            <polygon id="Path" fill="url(#linearGradient-8)" points="67.8 1.6 60.8 13.8 82.5 51.4 89.5 39.2"></polygon>
            <polygon id="Path" fill="url(#linearGradient-9)" points="66 0.6 22.5 0.6 16.1 11.7 59.5 11.7"></polygon>
        </g>
    </g>
</svg>