<?xml version="1.0" encoding="UTF-8"?>
<!-- Generated by Pixelmator Pro 3.6.15 -->
<svg viewBox="0 0 95 95" xmlns="http://www.w3.org/2000/svg">
    <path id="Path-copy-9" fill="#ff9900" fill-rule="evenodd" stroke="none" d="M 8.199997 49.100006 L 1.799999 60.200012 L 14.599998 60.200012 L 21.099998 49.100006 Z"/>
    <path id="Path-copy-8" fill="#ff9900" fill-rule="evenodd" stroke="none" d="M 9.400002 46.899994 L 37.599998 46.899994 L 44 35.799988 L 15.900002 35.799988 Z"/>
    <path id="Path-copy-7" fill="#0066ba" fill-rule="evenodd" stroke="none" d="M 38.800003 73.399994 L 52.900002 73.399994 L 38.800003 49.100006 L 24.699997 49.100006 Z"/>
    <path id="Path-copy-6" fill="#0066ba" fill-rule="evenodd" stroke="none" d="M 8.199997 73.399994 L 22.300003 73.399994 L 15.900002 62.299988 L 1.799999 62.299988 Z"/>
    <path id="Path-copy-5" fill="#0066ba" fill-rule="evenodd" stroke="none" d="M 69.400002 73.399994 L 83.5 73.399994 L 61.800003 35.799988 L 47.699997 35.799988 Z"/>
    <path id="Path-copy-4" fill="#00a2ff" fill-rule="evenodd" stroke="none" d="M 38.800003 49.100006 L 46.699997 62.700012 L 52.900002 73.399994 L 59.900002 61.299988 L 45.900002 36.899994 Z"/>
    <path id="Path-copy-3" fill="#00a2ff" fill-rule="evenodd" stroke="none" d="M 22.900002 50.100006 L 15.900002 62.299988 L 22.300003 73.399994 L 29.300003 61.200012 Z"/>
    <path id="Path-copy-2" fill="#00a2ff" fill-rule="evenodd" stroke="none" d="M 68.800003 23.600006 L 61.800003 35.799988 L 83.5 73.399994 L 90.5 61.200012 Z"/>
    <path id="Path-copy" fill="#ff9900" fill-rule="evenodd" stroke="none" d="M 67 22.600006 L 23.5 22.600006 L 17.099998 33.700012 L 60.5 33.700012 Z"/>
</svg>
