<?xml version="1.0" encoding="UTF-8"?>
<svg width="630px" height="965px" viewBox="0 0 630 965" version="1.1" xmlns="http://www.w3.org/2000/svg" xmlns:xlink="http://www.w3.org/1999/xlink">
    <title>You shall not pass</title>
    <g id="Page-1" stroke="none" stroke-width="1" fill="none" fill-rule="evenodd">
        <g id="HD-wallpaper-you-shall-not-pass-gandalf-lord-of-the-rings-lotr-3302512719" fill="#1C0C0F" fill-rule="nonzero">
            <path d="M317.06,550.54 C317.65,552.86 317.99,555.43 318.84,558.13 C322.14,568.643333 324.873333,578.02 327.04,586.26 C339.106667,632.24 351.27,682.06 363.53,735.72 C364.17,738.513333 364.763333,741.52 365.31,744.74 C366.09,749.27 366.53,752.86 367.84,756.72 C371.973333,768.92 377.113333,779.986667 383.26,789.92 C387.94,797.486667 390.923333,802.326667 392.21,804.44 C396.73,811.853333 400.31,820.146667 402.95,829.32 C404.43,834.453333 405.776667,839.82 406.99,845.42 C409.21,855.65 412.66,867.61 400.27,871.2 C397.143333,872.106667 394,872.98 390.84,873.82 C389.2,874.253333 386.596667,875.903333 383.03,878.77 C381.936667,879.65 380.02,880.37 377.28,880.93 C372.246667,881.963333 367.27,881.35 362.35,879.09 C356.716667,876.51 351.903333,873.23 347.91,869.25 C346.163333,867.496667 345.303333,867.796667 345.33,870.15 C345.336667,870.256667 345.37,870.66 345.43,871.36 C345.450362,871.598672 345.353935,871.832437 345.171225,871.987343 C344.988515,872.142249 344.742125,872.199133 344.51,872.14 L337.91,870.41 C337.645435,870.338851 337.363126,870.417619 337.173614,870.615461 C336.984101,870.813304 336.917543,871.098739 337,871.36 L340.26,881.93 C340.356631,882.240301 340.325458,882.576332 340.173395,882.863562 C340.021332,883.150792 339.760949,883.365477 339.45,883.46 L334.23,885.07 C333.799077,885.204431 333.441484,885.508557 333.23961,885.912305 C333.037736,886.316053 333.008991,886.784603 333.16,887.21 C334.873333,892.043333 337.983333,895.686667 342.49,898.14 C348.04,901.16 352.74,903.52 354.68,907.46 C355.091797,908.294549 354.885719,909.300207 354.18,909.9 C353.14,910.786667 351.79,911.45 350.13,911.89 C326.543333,918.11 302.983333,918.246667 279.45,912.3 C279.20667,912.239782 278.949222,912.290066 278.748003,912.437111 C278.546783,912.584156 278.422825,912.812592 278.41,913.06 C277.87,922.93 274.92,931.89 264.94,935.11 C256.246667,937.91 247.73,939.74 239.39,940.6 C236.583333,940.886667 233.813333,940.596667 231.08,939.73 C226.42,938.25 223.776667,937.4 223.15,937.18 C218.79,935.68 214.94,936.1 211.01,938.81 C206.28,942.06 202.55,944.43 196.52,944.56 C192.786667,944.64 189.236667,944.32 185.87,943.6 C185.316243,943.477768 184.735206,943.566884 184.24,943.85 L175.21,949.07 C174.983964,949.199499 174.819517,949.414474 174.753684,949.666522 C174.68785,949.91857 174.726165,950.186504 174.86,950.41 C176.59,953.35 175.99,956.15 173.75,958.55 C171.756667,960.683333 168.93,962.07 165.27,962.71 C153.49,964.763333 141.756667,965.376667 130.07,964.55 C122.88,964.05 113.26,958.6 118.05,950.07 C119.41,947.636667 121.233333,944.956667 123.52,942.03 C124.36,940.956667 124.833333,940.106667 124.94,939.48 C125.18,938.04 124.606667,937.55 123.22,938.01 C120.026667,939.07 116.893333,940.5 113.82,942.3 C110.7,944.12 105.16,945.06 100.85,944.05 C99.2633333,943.683333 98.0833333,943.52 97.31,943.56 C80.38,944.48 66.35,944.07 51.28,940.07 C51.1171676,940.024229 50.9885149,939.899236 50.9380637,939.737793 C50.8876125,939.576349 50.9222033,939.400343 51.03,939.27 C57.3366667,931.676667 63.9366667,924.963333 70.83,919.13 C71.0518818,918.942756 71.1804897,918.667498 71.1824092,918.375743 C71.1843286,918.083988 71.0593701,917.804538 70.84,917.61 C67.68,914.803333 64.21,912.32 60.43,910.16 C58.89,909.27 57.01,909.99 55.41,910.93 C52.93,912.383333 50.2866667,913.28 47.48,913.62 C47.0333333,913.673333 46.8633333,913.92 46.97,914.36 L47.44,916.27 C47.5133333,916.576667 47.5133333,916.883333 47.44,917.19 C46.7666667,919.91 45.1066667,920.92 42.46,920.22 C29.92,916.906667 20.1733333,914.416667 13.22,912.75 C10.3533333,912.063333 9.18666667,910.336667 9.72,907.57 C10.2666667,904.756667 11.22,902.35 12.58,900.35 C13.0266667,899.69 14.5,897.606667 17,894.1 C21.65,887.59 25.04,880.9 28.29,873.04 C29.23,870.76 28.97,868.786667 27.51,867.12 C24.47,863.65 21.87,861.02 19.8,858.37 C10.86,846.97 4.44333333,834.076667 0.55,819.69 C-0.41,816.15 0.396666667,813.673333 2.97,812.26 C5.48333333,810.873333 8.67,809.703333 12.53,808.75 C14.5233333,808.256667 18.7133333,807.33 25.1,805.97 C30.92,804.736667 35.0533333,803.61 37.5,802.59 C43.8133333,799.943333 49.4433333,796.04 54.39,790.88 C59.8166667,785.22 64.0433333,780.293333 67.07,776.1 C71.67,769.72 75.0433333,762.423333 77.19,754.21 C79.54,745.21 81.12,735.42 82.1,727.18 C83.8533333,712.446667 85.3266667,702.456667 86.52,697.21 C90.0533333,681.703333 93.79,667.09 97.73,653.37 C99.1033333,648.583333 100.916667,642.163333 103.17,634.11 C109.676667,610.83 115.346667,592.076667 120.18,577.85 C126.64,558.81 131.863333,544.983333 135.85,536.37 C140.93,525.41 144.153333,518.37 145.52,515.25 C147.91,509.81 149.27,503.36 147.54,497.58 C147.186667,496.4 146.013333,494.163333 144.02,490.87 C140.52,485.11 138.7,478.83 138.56,472.03 C138.32,460.82 140.25,449.75 142.88,438.83 C142.943718,438.578765 142.854487,438.313491 142.651884,438.151839 C142.44928,437.990188 142.170815,437.962087 141.94,438.08 C140.57,438.78 139.29,439.74 137.22,439.91 C133.86,440.176667 131.416667,440.42 129.89,440.64 C125.2,441.32 124.07,445.3 121.98,449.7 C121.226667,451.286667 118.976667,453.543333 115.23,456.47 C98.0966667,469.843333 88.13,477.633333 85.33,479.84 C78.0233333,485.593333 69.7266667,490.87 60.44,495.67 C57.9,496.976667 55.5233333,498.71 53.31,500.87 C52.7233333,501.436667 51.3,503.283333 49.04,506.41 C45.2933333,511.583333 40.12,514.863333 33.52,516.25 C19.92,519.11 16.92,507.99 22.34,498.09 C22.64,497.53 23.9333333,494.973333 26.22,490.42 C27.6133333,487.653333 28.4066667,485.173333 28.6,482.98 C29.1666667,476.613333 29.05,470.96 28.25,466.02 C27.62,462.15 25.05,458.44 22.71,455.17 C18.84,449.75 17.45,443.99 18.2,437.26 C18.72,432.586667 19.71,427.15 21.17,420.95 C24.89,405.083333 28.6766667,390.853333 32.53,378.26 C35.25,369.373333 40.22,361.8 47.44,355.54 C48.41,354.69 49.44,353 49.61,351.82 C50.29,347.153333 52.3633333,343.413333 55.83,340.6 C58.25,338.633333 60.6833333,337.033333 63.13,335.8 C65.23,334.733333 66.59,333.626667 67.21,332.48 C68.2366667,330.566667 68.6033333,328.533333 68.31,326.38 C68.2608715,326.031183 68.0208107,325.740787 67.69,325.63 C64.7833333,324.67 62.0966667,323.653333 59.63,322.58 C50.25,318.526667 42.3833333,312.713333 36.03,305.14 C34.91,303.806667 35.2233333,303.066667 36.97,302.92 L40.6,302.63 C42.2480303,302.493714 43.8366583,303.278412 44.73,304.67 C45.99,306.63 47.1,308.36 48.86,309.81 C51.6066667,312.076667 54.85,314.136667 58.59,315.99 C62.4033333,317.89 66.22,318.416667 70.04,317.57 C70.8933333,317.383333 71.5233333,316.586667 71.93,315.18 C72.9633333,311.606667 72.6366667,308.496667 70.95,305.85 C70.7633333,305.563333 70.7533333,305.27 70.92,304.97 C72.64,301.863333 73.9733333,298.19 74.92,293.95 C93.1466667,212.303333 106.66,153.646667 115.46,117.98 C120.713333,96.6733333 127.66,69.17 136.3,35.47 C137.126667,32.2366667 137.84,29.9366667 138.44,28.57 C139.573333,25.99 140.563333,23.8233333 141.41,22.07 C142.643333,19.51 143.283333,19.65 143.33,22.49 C143.43,28.4833333 143.06,33.76 142.22,38.32 C131.646667,95.8733333 121.836667,146.716667 112.79,190.85 C111.443333,197.41 105.73,225.08 95.65,273.86 C94.9433333,277.266667 93.6066667,284.406667 91.64,295.28 C90.7533333,300.173333 90.2033333,304.566667 89.99,308.46 C89.9575814,308.978283 89.71937,309.458316 89.33,309.79 C87.5566667,311.29 86.2866667,313.173333 85.52,315.44 C84.32,319.02 83.41,322.16 87.46,324.08 C93.45,326.91 100.67,326.42 107.5,325.64 C109.95,325.36 110.83,325.13 112.4,323.12 C118.146667,315.74 125.616667,309.386667 134.81,304.06 C144.13,298.66 151.453333,294.656667 156.78,292.05 C159.02,290.956667 160.923333,289.793333 162.49,288.56 C164.83,286.72 166.653333,285.426667 167.96,284.68 C168.226667,284.526667 168.4,284.296667 168.48,283.99 L168.86,282.55 C168.913333,282.35 169.04,282.233333 169.24,282.2 C169.333333,282.186667 169.43,282.193333 169.53,282.22 C169.683333,282.266667 169.786667,282.366667 169.84,282.52 C170,283.046667 170.133333,283.366667 170.24,283.48 C170.562084,283.833674 171.058144,283.955143 171.534624,283.797009 C172.011105,283.638876 172.392502,283.226199 172.53,282.72 L176.83,266.69 C176.906724,266.399118 176.861209,266.088856 176.703538,265.827948 C176.545867,265.56704 176.289057,265.377026 175.99,265.3 C175.803333,265.253333 175.696667,265.226667 175.67,265.22 C174.87,264.98 174.363333,265.24 174.15,266 L171.4,275.75 C171.353177,275.926816 171.225495,276.071393 171.058081,276.137163 C170.890667,276.202933 170.70467,276.181586 170.56,276.08 L170.12,275.77 C169.732802,275.500131 169.563273,275.011727 169.7,274.56 L172.57,265.41 C172.643685,265.170682 172.615464,264.911743 172.492119,264.695416 C172.368775,264.479089 172.16146,264.324934 171.92,264.27 C166.22,262.996667 161.163333,261.08 156.75,258.52 C150.89,255.106667 146.866667,251.006667 144.68,246.22 C141.36,238.93 143.98,232.62 148.68,226.94 C154,220.486667 160.05,215.616667 166.83,212.33 C174.763333,208.483333 183.596667,205.28 193.33,202.72 C197.5,201.63 199.92,200.18 201.99,196.52 C205.34,190.57 206.05,183.7 206.52,176.27 C206.593333,175.123333 207.046667,173.123333 207.88,170.27 C210.14,162.52 215.6,155.56 221.99,148.98 C232.03,138.64 241.44,130.83 256.37,135.63 C264.95,138.39 271.873333,144.21 277.14,153.09 C283.4,163.65 286.206667,174.81 285.56,186.57 C285.43,188.86 286.76,191.74 288.58,193.77 C289.92,195.263333 291.376667,197.01 292.95,199.01 C293.357387,199.533265 293.937693,199.897726 294.59,200.04 C309.23,203.2 322.186667,209.706667 333.46,219.56 C340.15,225.41 346.45,235.4 343.5,244.45 C341.13,251.72 332.87,257.73 326.05,261.28 C322.07,263.35 317.47,264.32 312.43,265.4 C311.97,265.493333 311.74,265.776667 311.74,266.25 L311.74,277.68 C311.741962,278.281699 312.196105,278.783419 312.79,278.84 C317.97,279.33 321.04,281.23 327.61,284.3 C329.73,285.3 331.68,285.77 333.83,286.13 C337.62,286.79 346.56,286.01 351.5,289.57 C354.61,291.82 355.35,296.04 358.79,298 C359.303333,298.293333 360.223333,298.55 361.55,298.77 C369.63,300.13 376.49,304.286667 382.13,311.24 C386.123333,316.153333 389.07,319.866667 390.97,322.38 C393.456667,325.66 396.746667,327.56 400.84,328.08 C401.766667,328.2 402.763333,329.05 403.83,330.63 C404.023333,330.923333 404.933333,332.346667 406.56,334.9 C407.026667,335.633333 407.61,336.13 408.31,336.39 C408.63,336.51 408.95,336.506667 409.27,336.38 C410.923333,335.713333 412.09,335.286667 412.77,335.1 C416.783333,333.986667 420.296667,334.813333 423.31,337.58 C423.81,338.04 424.333333,338.063333 424.88,337.65 C427.84,335.37 432.14,334.18 434.72,333.01 C437.286667,331.843333 439.586667,330.663333 441.62,329.47 C442.293907,329.07794 442.688641,328.334911 442.64,327.55 C442.22,320.696667 441.866667,314.123333 441.58,307.83 C441.32,302.12 440.31,291.03 440.52,283 C440.613333,279.293333 441.77,276.096667 443.99,273.41 C444.420391,272.886355 444.555884,272.178778 444.35,271.53 C442.25,264.79 440.526667,257.653333 439.18,250.12 C436.32,234.06 434.026667,222.666667 432.3,215.94 C430.713333,209.773333 428.696667,203.866667 426.25,198.22 C424.45,194.06 422.94,190.37 421.72,187.15 C420.96,185.123333 420.133333,181.813333 419.24,177.22 C417.84,170.07 416.86,166.43 416.44,160.81 C416.173333,157.303333 415.9,155.17 415.62,154.41 C413.186667,147.79 411.026667,140.99 409.14,134.01 C408.65,132.21 407.54,130.16 407.08,128.47 C406.66,126.9 407.06,125.39 406.85,123.92 C406.796667,123.58 406.653333,123.286667 406.42,123.04 C405.033333,121.566667 404.016667,119.793333 403.37,117.72 C402.84,116 401.65,114.46 400.42,113.17 C398.48,111.11 398.92,108.97 399.84,106.58 C400.100695,105.888507 399.88554,105.113139 399.31,104.67 C397.7,103.42 396.99,102.92 396.14,101.23 C395.38,99.76 394.61,98.23 393.07,96.93 C390.736667,94.9566667 388.656667,92.3333333 386.83,89.06 C386.09,87.74 385.76,86.4533333 385.84,85.2 C386.013333,82.4466667 386.45,80.36 387.15,78.94 C387.279297,78.6740513 387.256366,78.3606643 387.09,78.12 C385.656667,76.0466667 384.806667,74.5133333 384.54,73.52 C383.566667,69.8266667 384.036667,66.5366667 385.95,63.65 C386.560228,62.7394402 386.587527,61.5577686 386.02,60.62 C384.446667,58 384.09,55.2866667 384.95,52.48 C385.019363,52.2599978 384.97833,52.0212644 384.84,51.84 C384.54,51.44 384.08,50.9733333 383.46,50.44 C381.186667,48.4733333 380.613333,45.98 381.74,42.96 C383,39.6 384.86,36.5 387.32,33.66 C389.13,31.57 389.09,28.54 390.7,26.66 C392.306667,24.78 393.963333,22.9533333 395.67,21.18 C397.136667,19.66 397.913333,17.2766667 398,14.03 C398.013333,13.6233333 398.203333,13.0433333 398.57,12.29 C398.816667,11.7766667 399.16,11.29 399.6,10.83 C402.693333,7.59 405.556667,4.32333333 408.19,1.03 C408.421028,0.73877353 408.794534,0.599733073 409.159759,0.668999807 C409.524983,0.738266541 409.821644,1.00440763 409.93,1.36 L410.35,2.73 C410.575845,3.45894562 410.529678,4.24733911 410.22,4.95 L408.67,8.49 C408.603333,8.64333333 408.7,8.96666667 408.96,9.46 C410.23,11.84 412.91,15.33 413.57,18.6 C414.07,21.0866667 414.046667,23.3866667 413.5,25.5 C412.953333,27.6333333 412.763333,29.2733333 412.93,30.42 C413.276667,32.7933333 413.76,35.1766667 414.38,37.57 C414.82,39.27 414.703333,40.9266667 414.03,42.54 C413.35,44.17 413.57,44.59 413.59,46.32 C413.59,46.6466667 413.493333,46.94 413.3,47.2 L410.74,50.56 C410.512131,50.8632864 410.430582,51.2519762 410.517671,51.6196879 C410.604761,51.9873997 410.851369,52.2956232 411.19,52.46 L419.64,56.57 C420.305347,56.8925047 420.792931,57.4974019 420.97,58.22 L422.64,64.99 C422.705179,65.2501099 422.687738,65.5291618 422.59,65.79 C421.41,69.0633333 421.013333,72.6166667 421.4,76.45 C422.03,82.73 421.06,89.28 420.38,95.44 C420.30315,96.1538889 420.495736,96.8707386 420.92,97.45 C423.42,100.82 422.03,103.85 422.52,107.72 C422.62,108.546667 422.956667,109.516667 423.53,110.63 C424.743333,112.99 425.406667,114.736667 425.52,115.87 C426.586667,126.523333 427.96,134.28 429.64,139.14 C430.293333,141.026667 431.063333,143.403333 431.95,146.27 C432.463333,147.916667 432.92,150.326667 433.32,153.5 C433.986667,158.733333 435.073333,163.616667 436.58,168.15 C439.86,177.996667 442.146667,185.266667 443.44,189.96 C449.173333,210.793333 454.396667,232.716667 459.11,255.73 C459.496667,257.623333 459.796667,258.89 460.01,259.53 C460.10231,259.804922 460.313952,260.023381 460.58581,260.124357 C460.857669,260.225333 461.160604,260.198003 461.41,260.05 C465.22,257.79 469.38,256.2 473.63,258.13 C475.28,258.87 476.08,260.16 476.72,262.04 C477.49,264.32 478.14,265.51 480.26,266.66 C491.69,272.89 499.22,282 499.9,295.4 C500.22,301.78 499.35,308.61 498.64,316.76 C497.78,326.6 495.293333,337.843333 491.18,350.49 C491.02,350.99 491.036667,351.583333 491.23,352.27 C494.083333,362.41 498.1,372.73 503.28,383.23 C503.826667,384.336667 505.113333,386.566667 507.14,389.92 C509.31,393.51 512.76,399.01 511.67,403.86 C511.403333,405.033333 510.596667,406.676667 509.25,408.79 C506.58,413 505.54,415.39 505.63,420.53 C505.736667,427.316667 507.23,433.81 510.11,440.01 C512.423333,445.01 515.77,450.93 520.15,457.77 C521.083333,459.236667 522.036667,461.653333 523.01,465.02 C523.95,468.25 522.85,472.42 520.16,474.92 C519.473333,475.553333 518.896667,476.193333 518.43,476.84 C518.216667,477.126667 518.166667,477.44 518.28,477.78 C527.206667,504.233333 532.93,521.406667 535.45,529.3 C536.276667,531.893333 537.336667,536.213333 538.63,542.26 C539.97,548.53 543.51,555.94 545.95,563.26 C547.07,566.59 547.77,568.72 548.5,571.66 C549.84,577.106667 550.77,580.293333 551.29,581.22 C552.84,583.99 555.08,587.55 555.81,591.49 C556.383333,594.57 557.323333,597.246667 558.63,599.52 C559.29,600.66 559.873333,601.79 560.38,602.91 C561.56,605.51 559.55,608.74 560.23,611.75 C561.436667,617.083333 562.77,622.023333 564.23,626.57 C568.003333,638.283333 573.633333,654.49 581.12,675.19 C585.45,687.15 588.6,696.66 592.72,709.16 C594.95,715.91 597.1,720.24 600.3,726.25 C601.58,728.65 601.73,732.52 602.23,735.27 C602.516667,736.823333 603.16,738.656667 604.16,740.77 C607.273333,747.35 609.25,752.843333 610.09,757.25 C611.963333,767.036667 613.69,774.22 615.27,778.8 C618.21,787.286667 620.876667,794.58 623.27,800.68 C625.81,807.14 628.31,814.94 629.38,820.9 C630.106667,824.946667 628.626667,827.636667 624.94,828.97 C623.566667,829.47 621.086667,829.84 617.5,830.08 C614.9,830.26 613.75,828.9 612.81,826.68 C610.73,821.773333 609.216667,817.126667 608.27,812.74 C604.523333,795.386667 601.173333,777.983333 598.22,760.53 C596.81,752.21 592.56,743.57 589.9,737.55 C588.293333,733.916667 587.016667,730.693333 586.07,727.88 C584.19,722.31 581.75,714.74 578.55,708.01 C575.7,702.01 572.6,695.37 570.05,687.15 C568.703333,682.783333 563.646667,667.026667 554.88,639.88 C554.24,637.893333 553.343333,635.6 552.19,633 C548.66,625.06 546.35,616.35 544.54,607.93 C542.77,599.7 540.53,592.7 537.94,584.86 C536.666667,581.006667 535.826667,578.09 535.42,576.11 C534.28,570.6 533.37,565.89 531.57,559.46 C530.403333,555.326667 527.09,546.713333 521.63,533.62 C519.5,528.52 517,521.57 515.03,515.37 C510.676667,501.643333 506.653333,489.446667 502.96,478.78 C502.623044,477.815117 501.96766,476.990602 501.1,476.44 C498.15,474.57 496.31,473.54 494.28,471.8 C489.573333,467.766667 486.483333,465.203333 485.01,464.11 C478.463333,459.25 471.983333,455.636667 465.57,453.27 C458.49,450.663333 452.15,448.816667 446.55,447.73 C440.81,446.616667 436.536667,445.616667 433.73,444.73 C428.423333,443.05 423.533333,440.043333 419.06,435.71 C415.06,431.83 411.45,428.766667 408.23,426.52 C403.643333,423.32 398.41,421.936667 392.53,422.37 C382.496667,423.103333 376.743333,423.486667 375.27,423.52 C370.89,423.606667 366.87,422.32 363.21,419.66 C361.31,418.27 359.76,416.04 358.19,414.32 C356.99,413.013333 355.526667,412.76 353.8,413.56 C348.793333,415.88 343.16,418.733333 336.9,422.12 C336.326411,422.427328 336.093199,423.126965 336.37,423.71 C344.936667,442.176667 355.3,459.6 367.46,475.98 C383.78,497.97 401.21,517.45 420.36,537.99 C423.54,541.4 427.48,546.38 420.69,549.44 C420.076667,549.713333 419.953333,550.13 420.32,550.69 C422.326667,553.77 423.866667,557.066667 424.94,560.58 C427.74,569.78 423.83,576.05 418.13,582.89 C405.076667,598.543333 389.44,611.33 371.22,621.25 C370.906667,621.416667 370.626667,621.376667 370.38,621.13 L351.87,602.63 C351.616667,602.37 351.51,602.063333 351.55,601.71 C351.596667,601.376667 351.713333,601.116667 351.9,600.93 C352.565237,600.301532 352.740094,599.313387 352.33,598.5 C351.443333,596.72 350.176667,595.126667 348.53,593.72 C339.503333,586.026667 331.94,576.996667 325.84,566.63 C323.19,562.12 320.46,555.57 317.52,550.35 C316.9,549.243333 316.746667,549.306667 317.06,550.54 Z M91.03,335.74 C90.7033333,336.746667 90.56,337.546667 90.6,338.14 C90.6225225,338.490854 90.8389533,338.799812 91.1610043,338.940841 C91.4830553,339.08187 91.8568858,339.031392 92.13,338.81 C93.75,337.47 95.0266667,336.183333 95.96,334.95 C96.2333333,334.596667 98.2133333,333.476667 101.9,331.59 C102.513333,331.276667 102.903333,330.976667 103.07,330.69 C103.169862,330.522976 103.163743,330.313185 103.054317,330.152264 C102.944891,329.991344 102.75204,329.908532 102.56,329.94 C97.5266667,330.693333 91.49,330.81 84.45,330.29 C82.7233333,330.163333 81.5133333,330.453333 80.82,331.16 C79.7466667,332.253333 79.2333333,333.57 79.28,335.11 C79.2891615,335.496243 79.5092376,335.845857 79.8544946,336.022646 C80.1997515,336.199434 80.6155846,336.175436 80.94,335.96 C82.2933333,335.06 83.8766667,334.173333 85.69,333.3 C86.7233333,332.806667 87.6133333,332.733333 88.36,333.08 C89.3466667,333.526667 90.1733333,334.12 90.84,334.86 C91.0567508,335.10181 91.129184,335.43729 91.03,335.74 L91.03,335.74 Z" id="Shape"></path>
        </g>
    </g>
</svg>